<mxfile host="app.diagrams.net" modified="2022-12-20T08:36:39.785Z" agent="5.0 (Windows NT 10.0; Win64; x64) AppleWebKit/537.36 (KHTML, like Gecko) Chrome/108.0.0.0 Safari/537.36" etag="3k8c6AuEp44djCUzQLLJ" version="20.6.0" type="github">
  <diagram id="X8iErPKAvxndknGMTtUZ" name="第 1 页">
    <mxGraphModel dx="870" dy="594" grid="1" gridSize="10" guides="1" tooltips="1" connect="1" arrows="1" fold="1" page="1" pageScale="1" pageWidth="827" pageHeight="1169" math="0" shadow="0">
      <root>
        <mxCell id="0" />
        <mxCell id="1" parent="0" />
        <mxCell id="Kfr9wpKGolTqIImyM_xR-1" value="客户端" style="rounded=0;whiteSpace=wrap;html=1;" parent="1" vertex="1">
          <mxGeometry x="150" y="80" width="140" height="40" as="geometry" />
        </mxCell>
        <mxCell id="Kfr9wpKGolTqIImyM_xR-2" value="服务端" style="rounded=0;whiteSpace=wrap;html=1;" parent="1" vertex="1">
          <mxGeometry x="370" y="80" width="140" height="40" as="geometry" />
        </mxCell>
        <mxCell id="Kfr9wpKGolTqIImyM_xR-3" value="" style="endArrow=none;html=1;rounded=0;" parent="1" edge="1">
          <mxGeometry width="50" height="50" relative="1" as="geometry">
            <mxPoint x="220" y="500" as="sourcePoint" />
            <mxPoint x="220" y="130" as="targetPoint" />
          </mxGeometry>
        </mxCell>
        <mxCell id="Kfr9wpKGolTqIImyM_xR-4" value="" style="endArrow=none;html=1;rounded=0;startArrow=none;" parent="1" source="Kfr9wpKGolTqIImyM_xR-7" edge="1">
          <mxGeometry width="50" height="50" relative="1" as="geometry">
            <mxPoint x="439.5" y="500" as="sourcePoint" />
            <mxPoint x="439.5" y="130" as="targetPoint" />
          </mxGeometry>
        </mxCell>
        <mxCell id="Kfr9wpKGolTqIImyM_xR-5" value="在共享内存中，&lt;br&gt;填写进程间通信参数" style="rounded=1;whiteSpace=wrap;html=1;" parent="1" vertex="1">
          <mxGeometry x="160" y="150" width="120" height="40" as="geometry" />
        </mxCell>
        <mxCell id="Kfr9wpKGolTqIImyM_xR-6" value="ipc_call" style="rounded=1;whiteSpace=wrap;html=1;" parent="1" vertex="1">
          <mxGeometry x="160" y="220" width="120" height="40" as="geometry" />
        </mxCell>
        <mxCell id="Kfr9wpKGolTqIImyM_xR-7" value="进程间通信处理函数" style="rounded=1;whiteSpace=wrap;html=1;" parent="1" vertex="1">
          <mxGeometry x="380" y="290" width="120" height="40" as="geometry" />
        </mxCell>
        <mxCell id="Kfr9wpKGolTqIImyM_xR-8" value="" style="endArrow=none;html=1;rounded=0;" parent="1" target="Kfr9wpKGolTqIImyM_xR-7" edge="1">
          <mxGeometry width="50" height="50" relative="1" as="geometry">
            <mxPoint x="439.5" y="500" as="sourcePoint" />
            <mxPoint x="439.5" y="130" as="targetPoint" />
          </mxGeometry>
        </mxCell>
        <mxCell id="Kfr9wpKGolTqIImyM_xR-9" value="" style="shape=flexArrow;endArrow=classic;html=1;rounded=0;" parent="1" edge="1">
          <mxGeometry width="50" height="50" relative="1" as="geometry">
            <mxPoint x="290" y="260" as="sourcePoint" />
            <mxPoint x="370" y="300" as="targetPoint" />
          </mxGeometry>
        </mxCell>
        <mxCell id="Kfr9wpKGolTqIImyM_xR-10" value="ipc_return&lt;br&gt;" style="rounded=1;whiteSpace=wrap;html=1;" parent="1" vertex="1">
          <mxGeometry x="380" y="360" width="120" height="40" as="geometry" />
        </mxCell>
        <mxCell id="Kfr9wpKGolTqIImyM_xR-11" value="" style="shape=flexArrow;endArrow=classic;html=1;rounded=0;" parent="1" edge="1">
          <mxGeometry width="50" height="50" relative="1" as="geometry">
            <mxPoint x="370" y="380" as="sourcePoint" />
            <mxPoint x="290" y="420" as="targetPoint" />
          </mxGeometry>
        </mxCell>
        <mxCell id="Kfr9wpKGolTqIImyM_xR-12" value="完成进程间通信" style="rounded=1;whiteSpace=wrap;html=1;" parent="1" vertex="1">
          <mxGeometry x="160" y="410" width="120" height="40" as="geometry" />
        </mxCell>
        <mxCell id="K2cTnDJrICtEs7Eq3sbq-1" value="线程迁移" style="text;html=1;strokeColor=none;fillColor=none;align=center;verticalAlign=middle;whiteSpace=wrap;rounded=0;" vertex="1" parent="1">
          <mxGeometry x="327" y="247" width="60" height="30" as="geometry" />
        </mxCell>
        <mxCell id="K2cTnDJrICtEs7Eq3sbq-2" value="线程迁移" style="text;html=1;strokeColor=none;fillColor=none;align=center;verticalAlign=middle;whiteSpace=wrap;rounded=0;" vertex="1" parent="1">
          <mxGeometry x="280" y="369" width="60" height="30" as="geometry" />
        </mxCell>
      </root>
    </mxGraphModel>
  </diagram>
</mxfile>
